<svg width="512" height="512" fill="none" xmlns="http://www.w3.org/2000/svg"><path fill-rule="evenodd" clip-rule="evenodd" d="M137.587 19h33.089v48h-8.017c-9.505 13.62-19.048 27.213-28.092 40.095-10.776 15.349-20.845 29.691-29.299 41.871h68.861v209.858h87.231c13.255 0 24 10.746 24 24 0 13.255-10.745 24-24 24H126.129V196.966H81.181c-2.106.001-5.289.001-8.455-.221-2.986-.21-8.064-.726-13.171-2.716-5.08-1.978-15.004-7.487-17.87-20.156-2.516-11.131 2.395-20.145 5.211-24.448 9.57-14.621 28.342-41.361 49.224-71.107 11.193-15.945 22.993-32.753 34.306-49.02L137.587 19ZM75.186 148.769l.074.013-.074-.013Zm315.451 139.933a126.21 126.21 0 0 0 16.57-15.118c18.7-20.371 36.146-52.692 36.146-100.618C443.353 86.389 384.109 19 319.932 19H170.677l-.001 24 .001 24h149.255c29.822 0 75.421 37.306 75.421 105.966 0 35.108-12.38 56.038-23.506 68.158-5.745 6.258-11.441 10.46-15.551 13.03a53.767 53.767 0 0 1-4.641 2.614c-.488.24-.812.386-.946.445l-.003.001-23.719 9.331 11.037 23.223 21.677-10.302c-21.677 10.302-21.676 10.303-21.676 10.303l.001.003.571 1.202 1.659 3.495a20311.76 20311.76 0 0 1 27.146 57.486c13.312 28.306 29.193 62.252 43.376 93.045h-76.536v24-24c-13.255 0-24 10.745-24 24s10.745 24 24 24v-24 24h101.38c10.802 0 22.03-4.847 28.262-15.708 5.62-9.793 4.956-20.764 1.17-29.074-16.512-36.238-37.44-81.02-54.216-116.69a20155.946 20155.946 0 0 0-20.201-42.826Z" fill="#DB2777"/></svg>
