<svg width="512" height="512" fill="none" xmlns="http://www.w3.org/2000/svg"><path fill-rule="evenodd" clip-rule="evenodd" d="m162.692 67-56.842 81.966h68.28v209.858h71.23c13.255 0 24 10.746 24 24 0 13.255-10.745 24-24 24h-85.23c-18.778 0-34-15.222-34-34V196.966H79.104c-27.438 0-43.575-30.828-27.939-53.375l76.26-109.966A34 34 0 0 1 155.364 19h137.568c64.177 0 123.421 67.39 123.421 153.966 0 47.926-17.445 80.247-36.146 100.618-6.349 6.916-11.404 11.195-16.61 15.149l73.394 155.776C447.617 467.06 431.164 493 406.234 493h-98.992c-13.255 0-24-10.745-24-24s10.745-24 24-24h76.92l-84.094-178.487 23.638-9.299.003-.001c.134-.059.458-.205.946-.445a53.615 53.615 0 0 0 4.641-2.614c4.11-2.57 9.806-6.772 15.551-13.03 11.126-12.12 23.506-33.05 23.506-68.158 0-68.66-45.599-105.966-75.421-105.966h-130.24Z" fill="#DB2777"/></svg>
