<svg width="2222" height="512" fill="none" xmlns="http://www.w3.org/2000/svg"><path fill-rule="evenodd" clip-rule="evenodd" d="m162.692 67-56.842 81.966h68.28v209.858h71.23c13.255 0 24 10.746 24 24 0 13.255-10.745 24-24 24h-85.23c-18.778 0-34-15.222-34-34V196.966H79.104c-27.438 0-43.575-30.828-27.939-53.375l76.26-109.966A34 34 0 0 1 155.364 19h137.568c64.177 0 123.421 67.39 123.421 153.966 0 47.926-17.445 80.247-36.146 100.618a126.164 126.164 0 0 1-16.61 15.149l73.394 155.776C447.617 467.06 431.164 493 406.234 493h-98.992c-13.255 0-24-10.745-24-24s10.745-24 24-24h76.92l-84.094-178.487 23.638-9.299.003-.001c.134-.059.458-.205.946-.445a53.615 53.615 0 0 0 4.641-2.614c4.11-2.57 9.806-6.772 15.551-13.03 11.126-12.12 23.506-33.05 23.506-68.158 0-68.66-45.599-105.966-75.421-105.966h-130.24Z" fill="#DB2777"/><path d="M602.4 410c-22.133 0-40.667-3.6-55.6-10.8-14.933-7.467-26.4-18-34.4-31.6-7.733-13.6-12-29.467-12.8-47.6-.267-5.333-.4-11.333-.4-18 0-6.933.133-12.933.4-18 .8-18.4 5.333-34.267 13.6-47.6 8.267-13.6 19.867-24 34.8-31.2 14.933-7.467 33.067-11.2 54.4-11.2 21.067 0 39.067 3.733 54 11.2 14.933 7.2 26.533 17.6 34.8 31.2 8.267 13.333 12.8 29.2 13.6 47.6.533 5.067.8 11.067.8 18 0 6.667-.267 12.667-.8 18-.8 18.133-5.2 34-13.2 47.6-7.733 13.6-19.067 24.133-34 31.6-14.933 7.2-33.333 10.8-55.2 10.8Zm0-44c13.067 0 22.933-4 29.6-12 6.667-8.267 10.267-20.267 10.8-36 .267-4 .4-9.333.4-16s-.133-12-.4-16c-.533-15.467-4.133-27.333-10.8-35.6-6.667-8.267-16.533-12.4-29.6-12.4s-23.067 4.133-30 12.4c-6.667 8.267-10.267 20.133-10.8 35.6-.267 4-.4 9.333-.4 16s.133 12 .4 16c.533 15.733 4.133 27.733 10.8 36 6.933 8 16.933 12 30 12Zm146.634 40c-2.666 0-4.933-.933-6.8-2.8-1.866-1.867-2.8-4.267-2.8-7.2V208c0-2.933.934-5.333 2.8-7.2 1.867-1.867 4.134-2.8 6.8-2.8h39.2c2.934 0 5.334.933 7.2 2.8 1.867 1.867 2.8 4.267 2.8 7.2v15.6c6.934-8.533 15.867-15.6 26.8-21.2 10.934-5.6 24.267-8.4 40-8.4 15.734 0 29.467 3.6 41.2 10.8 12 6.933 21.334 17.2 28 30.8 6.934 13.333 10.4 29.6 10.4 48.8V396c0 2.933-1.066 5.333-3.2 7.2-1.866 1.867-4.133 2.8-6.8 2.8h-42.4c-2.933 0-5.333-.933-7.2-2.8-1.866-1.867-2.8-4.267-2.8-7.2V286.8c0-14.133-3.466-25.067-10.4-32.8-6.666-8-16.533-12-29.6-12-12.533 0-22.533 4-30 12-7.466 7.733-11.2 18.667-11.2 32.8V396c0 2.933-.933 5.333-2.8 7.2-1.866 1.867-4.133 2.8-6.8 2.8h-42.4Zm328.326 4c-30.67 0-55.07-8.533-73.2-25.6-17.867-17.067-27.334-41.867-28.401-74.4V292.8c1.067-20.533 5.734-38.133 14-52.8 8.267-14.933 19.871-26.267 34.801-34 14.93-8 32.4-12 52.4-12 22.4 0 41.07 4.667 56 14 15.2 9.067 26.53 21.6 34 37.6 7.73 15.733 11.6 33.867 11.6 54.4v9.2c0 2.667-1.07 4.933-3.2 6.8-1.87 1.867-4.13 2.8-6.8 2.8h-130.8v3.2c.27 8.533 1.87 16.4 4.8 23.6 3.2 6.933 7.6 12.533 13.2 16.8 5.87 4.267 12.8 6.4 20.8 6.4 6.67 0 12.13-.933 16.4-2.8 4.27-1.867 7.73-4.133 10.4-6.8 2.93-2.667 5.07-4.933 6.4-6.8 2.4-2.667 4.27-4.267 5.6-4.8 1.6-.8 4-1.2 7.2-1.2h41.6c2.67 0 4.8.8 6.4 2.4 1.87 1.333 2.67 3.333 2.4 6-.27 4.267-2.53 9.6-6.8 16-4 6.133-10 12.267-18 18.4-8 5.867-18 10.8-30 14.8-11.73 4-25.33 6-40.8 6Zm-39.6-127.6h78.4v-.8c0-9.6-1.6-17.867-4.8-24.8-2.93-7.2-7.33-12.8-13.2-16.8-5.87-4-12.93-6-21.2-6s-15.33 2-21.2 6c-5.87 4-10.4 9.6-13.6 16.8-2.93 6.933-4.4 15.2-4.4 24.8v.8ZM1224.94 406c-2.93 0-5.33-.933-7.2-2.8-1.86-1.867-2.8-4.267-2.8-7.2V136c0-2.933.94-5.333 2.8-7.2 1.87-1.867 4.27-2.8 7.2-2.8h106c33.34 0 59.6 7.733 78.8 23.2 19.2 15.2 28.8 37.2 28.8 66 0 19.467-4.66 35.733-14 48.8-9.33 13.067-21.86 22.8-37.6 29.2l56.4 100c.8 1.6 1.2 3.067 1.2 4.4 0 2.133-.8 4.133-2.4 6-1.6 1.6-3.6 2.4-6 2.4h-44.4c-4.8 0-8.4-1.2-10.8-3.6-2.4-2.667-4.13-5.067-5.2-7.2l-48.8-91.6h-48.4V396c0 2.933-.93 5.333-2.8 7.2-1.86 1.867-4.26 2.8-7.2 2.8h-43.6Zm53.6-153.2h51.2c14.67 0 25.47-3.333 32.4-10 7.2-6.667 10.8-16 10.8-28s-3.46-21.467-10.4-28.4c-6.93-6.933-17.86-10.4-32.8-10.4h-51.2v76.8ZM1565.27 410c-30.67 0-55.07-8.533-73.2-25.6-17.87-17.067-27.34-41.867-28.4-74.4V292.8c1.06-20.533 5.73-38.133 14-52.8 8.26-14.933 19.86-26.267 34.8-34 14.93-8 32.4-12 52.4-12 22.4 0 41.06 4.667 56 14 15.2 9.067 26.53 21.6 34 37.6 7.73 15.733 11.6 33.867 11.6 54.4v9.2c0 2.667-1.07 4.933-3.2 6.8-1.87 1.867-4.14 2.8-6.8 2.8h-130.8v3.2c.26 8.533 1.86 16.4 4.8 23.6 3.2 6.933 7.6 12.533 13.2 16.8 5.86 4.267 12.8 6.4 20.8 6.4 6.66 0 12.13-.933 16.4-2.8 4.26-1.867 7.73-4.133 10.4-6.8 2.93-2.667 5.06-4.933 6.4-6.8 2.4-2.667 4.26-4.267 5.6-4.8 1.6-.8 4-1.2 7.2-1.2h41.6c2.66 0 4.8.8 6.4 2.4 1.86 1.333 2.66 3.333 2.4 6-.27 4.267-2.54 9.6-6.8 16-4 6.133-10 12.267-18 18.4-8 5.867-18 10.8-30 14.8-11.74 4-25.34 6-40.8 6Zm-39.6-127.6h78.4v-.8c0-9.6-1.6-17.867-4.8-24.8-2.94-7.2-7.34-12.8-13.2-16.8-5.87-4-12.94-6-21.2-6-8.27 0-15.34 2-21.2 6-5.87 4-10.4 9.6-13.6 16.8-2.94 6.933-4.4 15.2-4.4 24.8v.8ZM1708.45 482c-2.93 0-5.33-.933-7.2-2.8-1.87-1.867-2.8-4.267-2.8-7.2V208c0-2.933.93-5.333 2.8-7.2 1.87-1.867 4.27-2.8 7.2-2.8h38c2.93 0 5.33.933 7.2 2.8 1.87 1.867 2.8 4.267 2.8 7.2v15.2c6.4-8.533 14.67-15.467 24.8-20.8 10.13-5.6 22.8-8.4 38-8.4 13.87 0 25.87 2.267 36 6.8 10.4 4.267 19.07 10.533 26 18.8 7.2 8 12.67 17.733 16.4 29.2 4 11.467 6.27 24.4 6.8 38.8.27 5.067.4 9.867.4 14.4 0 4.533-.13 9.467-.4 14.8-.27 13.6-2.4 26.133-6.4 37.6-3.73 11.467-9.2 21.333-16.4 29.6-7.2 8.267-16 14.667-26.4 19.2-10.13 4.533-22.13 6.8-36 6.8-13.6 0-25.47-2.4-35.6-7.2-9.87-5.067-18-11.867-24.4-20.4V472c0 2.933-.93 5.333-2.8 7.2-1.87 1.867-4.13 2.8-6.8 2.8h-41.2Zm92.8-120c10.13 0 18.13-2.133 24-6.4 5.87-4.533 10-10.4 12.4-17.6 2.67-7.2 4.27-15.067 4.8-23.6.53-8.267.53-16.533 0-24.8-.53-8.533-2.13-16.4-4.8-23.6-2.4-7.2-6.53-12.933-12.4-17.2-5.87-4.533-13.87-6.8-24-6.8-9.87 0-17.87 2.267-24 6.8-6.13 4.533-10.53 10.267-13.2 17.2s-4.27 14.4-4.8 22.4c-.27 4.8-.4 9.733-.4 14.8s.13 10.133.4 15.2c.27 7.467 1.87 14.533 4.8 21.2 3.2 6.4 7.73 11.733 13.6 16 6.13 4.267 14 6.4 23.6 6.4Zm233.23 48c-22.14 0-40.67-3.6-55.6-10.8-14.94-7.467-26.4-18-34.4-31.6-7.74-13.6-12-29.467-12.8-47.6-.27-5.333-.4-11.333-.4-18 0-6.933.13-12.933.4-18 .8-18.4 5.33-34.267 13.6-47.6 8.26-13.6 19.86-24 34.8-31.2 14.93-7.467 33.06-11.2 54.4-11.2 21.06 0 39.06 3.733 54 11.2 14.93 7.2 26.53 17.6 34.8 31.2 8.26 13.333 12.8 29.2 13.6 47.6.53 5.067.8 11.067.8 18 0 6.667-.27 12.667-.8 18-.8 18.133-5.2 34-13.2 47.6-7.74 13.6-19.07 24.133-34 31.6-14.94 7.2-33.34 10.8-55.2 10.8Zm0-44c13.06 0 22.93-4 29.6-12 6.66-8.267 10.26-20.267 10.8-36 .26-4 .4-9.333.4-16s-.14-12-.4-16c-.54-15.467-4.14-27.333-10.8-35.6-6.67-8.267-16.54-12.4-29.6-12.4-13.07 0-23.07 4.133-30 12.4-6.67 8.267-10.27 20.133-10.8 35.6-.27 4-.4 9.333-.4 16s.13 12 .4 16c.53 15.733 4.13 27.733 10.8 36 6.93 8 16.93 12 30 12Z" fill="#DB2777"/></svg>
