<svg viewBox="0 0 512 512" fill="none" xmlns="http://www.w3.org/2000/svg"><path fill-rule="evenodd" clip-rule="evenodd" d="m171.797 56-57.419 83.119h70.73v224.637h73.544c15.464 0 28 12.536 28 28s-12.536 28-28 28h-91.544c-20.987 0-38-17.013-38-38V195.119H80.065c-30.635 0-48.677-34.393-31.265-59.599L131.09 16.402A38 38 0 0 1 162.354 0h147.024c70.246 0 134.013 73.692 134.013 167.119 0 51.884-18.831 87.016-39.14 109.225a137.416 137.416 0 0 1-16.563 15.372l77.975 166.139c11.827 25.2-6.562 54.145-34.4 54.145H324.637c-15.464 0-28-12.536-28-28s12.536-28 28-28h78.294L313.77 266.026l27.46-10.844c.136-.061.433-.197.871-.413.977-.483 2.628-1.356 4.734-2.678 4.231-2.657 10.131-7.021 16.089-13.537 11.495-12.571 24.467-34.438 24.467-71.435C387.391 94.376 339.363 56 309.378 56H171.797Z" fill="currentcolor"/></svg>
